<?xml version="1.0" encoding="UTF-8"?>
<svg xmlns="http://www.w3.org/2000/svg" viewBox="0 0 333 318">
  <defs>
    <style>
      .cls-1 {
        stroke: #2e3192;
      }

      .cls-1, .cls-2 {
        fill: none;
        stroke-miterlimit: 10;
        stroke-width: .75px;
      }

      .cls-3 {
        fill: #7cff3e;
      }

      .cls-2 {
        stroke: #00aeef;
      }
    </style>
  </defs>
  <g id="FloorPlan">
    <g>
      <path class="cls-2" d="M120.196,165.979h20.16v-18h36v-20.16h-56.16v38.16ZM122.356,129.98h51.84v15.84h-36v18h-15.84v-33.839Z"/>
      <path class="cls-2" d="M48.196,62.079v-6.259h74.16v54h51.84v-16.03c-12.797-4.578-21.34-16.664-21.34-30.32,0-17.75,14.44-32.19,32.19-32.19s32.19,14.44,32.19,32.19c0,14.191-9.366,26.748-22.88,30.823v15.527h33.84v-53.22h57.29v73.38h-91.13v15.84h18v36h15.84v-16.92c0-10.521,8.56-19.08,19.08-19.08,5.1,0,9.892,1.984,13.493,5.586,3.603,3.59,5.587,8.383,5.587,13.493v21.681c0,8.491-6.904,15.399-15.391,15.399h-38.609v18h-18.09v50.07h-2.16v-52.23h18.09v-18h40.77c7.295,0,13.23-5.939,13.23-13.239v-21.681c0-4.532-1.759-8.781-4.953-11.964-3.195-3.196-7.444-4.955-11.967-4.955-9.33,0-16.92,7.59-16.92,16.919v16.92h16.92v2.16h-37.08v-36h-17.995l-.01-2.16h.005v-18h91.13V58.76h-52.97v53.22h-38.15l-.005-1.08h-.005v-18.245l.795-.217c13.003-3.559,22.085-15.471,22.085-28.968,0-16.559-13.472-30.03-30.03-30.03s-30.03,13.471-30.03,30.03c0,12.984,8.278,24.448,20.599,28.524l.741.245v19.741h-56.16v-54H50.356v4.099h-2.16Z"/>
      <path class="cls-2" d="M48.196,105.526v6.454h54v15.84h-40.32c-11.778,0-21.36,9.582-21.36,21.36s9.582,21.36,21.36,21.36,21.35-9.582,21.35-21.36c0-.54-.022-.885-.061-1.19h19.031v33.83h-54v74.16h74.16v-72h15.84v36h35.91v50.07h2.16v-52.23h-35.91v-36h-20.16v72H50.356v-69.84h54v-38.15h-23.72l.192,1.245c.042.273.08.487.112.672.086.491.125.715.125,1.434,0,10.587-8.608,19.2-19.19,19.2s-19.2-8.613-19.2-19.2,8.613-19.2,19.2-19.2h42.48v-20.16h-54v-4.293h-2.16Z"/>
    </g>
  </g>
  <g id="Doors">
    <rect id="door-habitat" class="cls-1" x="104.356" y="180.399" width="15.84" height="5.698"/>
    <rect id="door-hall1" class="cls-1" x="131.361" y="171.05" width="15.84" height="5.698" transform="translate(-34.619 313.18) rotate(-90)"/>
    <rect id="door-armory" class="cls-1" x="95.351" y="135.055" width="15.85" height="5.698" transform="translate(-34.629 241.18) rotate(-90)"/>
    <rect id="door-medbay" class="cls-1" x="221.356" y="117.051" width="15.84" height="5.698" transform="translate(109.376 349.176) rotate(-90)"/>
    <rect id="door-pantry" class="cls-1" x="203.361" y="189.05" width="15.84" height="5.698" transform="translate(19.381 403.18) rotate(-90)"/>
    <rect id="door-garage" class="cls-1" x="104.356" y="108.05" width="15.84" height="5.698"/>
    <rect id="door-garageext" class="cls-1" x="27.52" y="80.953" width="43.448" height="5.698" transform="translate(-34.559 133.046) rotate(-90)"/>
    <rect id="door-hall2" class="cls-1" x="176.356" y="144.05" width="15.845" height="5.698"/>
    <rect id="door-command" class="cls-1" x="176.356" y="108.053" width="15.845" height="5.698"/>
    <rect id="door-freezer" class="cls-1" x="247.28" y="180.048" width="16.915" height="5.698"/>
    <rect id="door-airlockint" class="cls-1" x="176.266" y="216.053" width="15.84" height="5.698"/>
    <rect id="door-airlockext" class="cls-1" x="176.266" y="264.351" width="15.84" height="5.698"/>
  </g>
  <g id="Labels">
    <g>
      <path class="cls-3" style="fill:#7cff3e!important;opacity:1!important" d="M155.568,184.732c-.132,0-.253-.032-.363-.096-.11-.064-.197-.151-.261-.262-.064-.109-.096-.23-.096-.362v-2.88c0-.133.032-.253.096-.363s.151-.197.261-.261c.11-.064.231-.097.363-.097h3.588v.486h-3.588c-.064,0-.119.023-.165.069-.046.046-.069.101-.069.165v2.88c0,.063.023.119.069.165.046.046.101.068.165.068h3.588v.486h-3.588Z"/>
      <path class="cls-3" style="fill:#7cff3e!important;opacity:1!important" d="M160.112,184.634c-.11-.066-.198-.154-.264-.265-.066-.109-.099-.23-.099-.362v-2.028c0-.132.033-.253.099-.363.066-.109.154-.198.264-.264.11-.066.231-.1.363-.1h2.088c.137,0,.26.033.369.1.109.065.197.154.264.264.066.11.1.231.1.363v2.028c0,.132-.033.253-.1.362-.066.11-.154.198-.264.265-.109.065-.232.099-.369.099h-2.088c-.132,0-.253-.033-.363-.099ZM160.475,184.24h2.088c.064,0,.119-.022.166-.068.045-.047.068-.102.068-.165v-2.028c0-.064-.023-.119-.068-.165-.047-.046-.102-.069-.166-.069h-2.088c-.064,0-.119.023-.165.069-.046.046-.069.101-.069.165v2.028c0,.063.023.118.069.165.046.046.1.068.165.068Z"/>
      <path class="cls-3" style="fill:#7cff3e!important;opacity:1!important" d="M163.92,184.732v-3.48h4.596c.136,0,.259.033.369.1.11.065.197.154.261.264.064.11.097.231.097.363v2.754h-.486v-2.754c0-.064-.024-.119-.072-.165s-.104-.069-.168-.069h-1.446c-.063,0-.119.023-.165.069s-.068.101-.068.165v2.754h-.498v-2.754c0-.064-.023-.119-.069-.165s-.101-.069-.165-.069h-1.452c-.063,0-.119.023-.165.069s-.068.101-.068.165v2.754h-.498Z"/>
      <path class="cls-3" style="fill:#7cff3e!important;opacity:1!important" d="M169.71,184.732v-3.48h4.596c.136,0,.259.033.369.1.11.065.197.154.261.264.064.11.097.231.097.363v2.754h-.486v-2.754c0-.064-.024-.119-.072-.165s-.104-.069-.168-.069h-1.446c-.063,0-.119.023-.165.069s-.068.101-.068.165v2.754h-.498v-2.754c0-.064-.023-.119-.069-.165s-.101-.069-.165-.069h-1.452c-.063,0-.119.023-.165.069s-.068.101-.068.165v2.754h-.498Z"/>
      <path class="cls-3" style="fill:#7cff3e!important;opacity:1!important" d="M175.565,180.604v-.492h.492v.492h-.492ZM175.565,184.732v-3.48h.492v3.48h-.492Z"/>
      <path class="cls-3" style="fill:#7cff3e!important;opacity:1!important" d="M177.153,184.634c-.11-.066-.198-.154-.265-.265-.065-.109-.099-.23-.099-.362v-.049h.492v.049c0,.063.022.118.068.165.046.046.102.068.165.068h2.088c.064,0,.119-.022.165-.068.046-.047.069-.102.069-.165v-.534c0-.064-.023-.119-.069-.165s-.101-.069-.165-.069h-2.088c-.132,0-.253-.033-.362-.099-.11-.066-.198-.154-.265-.265-.065-.109-.099-.23-.099-.362v-.534c0-.132.033-.253.099-.363.066-.109.154-.198.265-.264.109-.066.23-.1.362-.1h2.088c.137,0,.26.033.369.1.11.065.198.154.265.264.065.11.099.231.099.363v.048h-.498v-.048c0-.064-.023-.119-.069-.165s-.101-.069-.165-.069h-2.088c-.063,0-.119.023-.165.069s-.068.101-.068.165v.534c0,.063.022.119.068.165s.102.068.165.068h2.088c.137,0,.26.033.369.1.11.065.198.153.265.264.065.11.099.231.099.363v.534c0,.132-.033.253-.099.362-.066.11-.154.198-.265.265-.109.065-.232.099-.369.099h-2.088c-.132,0-.253-.033-.362-.099Z"/>
      <path class="cls-3" style="fill:#7cff3e!important;opacity:1!important" d="M181.268,184.634c-.11-.066-.198-.154-.265-.265-.065-.109-.099-.23-.099-.362v-.049h.492v.049c0,.063.022.118.068.165.046.046.102.068.165.068h2.088c.064,0,.119-.022.165-.068.046-.047.069-.102.069-.165v-.534c0-.064-.023-.119-.069-.165s-.101-.069-.165-.069h-2.088c-.132,0-.253-.033-.362-.099-.11-.066-.198-.154-.265-.265-.065-.109-.099-.23-.099-.362v-.534c0-.132.033-.253.099-.363.066-.109.154-.198.265-.264.109-.066.23-.1.362-.1h2.088c.137,0,.26.033.369.1.11.065.198.154.265.264.065.11.099.231.099.363v.048h-.498v-.048c0-.064-.023-.119-.069-.165s-.101-.069-.165-.069h-2.088c-.063,0-.119.023-.165.069s-.068.101-.068.165v.534c0,.063.022.119.068.165s.102.068.165.068h2.088c.137,0,.26.033.369.1.11.065.198.153.265.264.065.11.099.231.099.363v.534c0,.132-.033.253-.099.362-.066.11-.154.198-.265.265-.109.065-.232.099-.369.099h-2.088c-.132,0-.253-.033-.362-.099Z"/>
      <path class="cls-3" style="fill:#7cff3e!important;opacity:1!important" d="M185.771,184.732c-.132,0-.253-.033-.363-.099-.11-.066-.198-.154-.264-.265-.066-.109-.1-.23-.1-.362v-1.261h3.049v-.768c0-.064-.023-.119-.069-.165s-.102-.069-.165-.069h-2.814v-.492h2.814c.136,0,.259.033.369.1.109.065.198.154.264.264.066.11.1.231.1.363v2.754h-2.82ZM185.771,184.24h2.322v-1.002h-2.557v.769c0,.063.023.118.069.165.046.046.101.068.165.068Z"/>
      <path class="cls-3" style="fill:#7cff3e!important;opacity:1!important" d="M189.178,184.732v-2.754c0-.132.033-.253.1-.363.065-.109.153-.198.264-.264.11-.066.231-.1.363-.1h1.956v.492h-1.956c-.064,0-.119.023-.165.069s-.069.101-.069.165v2.754h-.492Z"/>
      <path class="cls-3" style="fill:#7cff3e!important;opacity:1!important" d="M192.833,186.112v-.498h2.173c.063,0,.118-.022.165-.068.046-.047.068-.102.068-.165v-.648h-2.322c-.132,0-.253-.033-.362-.099-.11-.066-.198-.154-.265-.265-.065-.109-.099-.23-.099-.362v-2.742h.492v2.742c0,.063.022.118.069.165.046.046.101.068.164.068h2.089c.063,0,.118-.022.165-.068.046-.047.068-.102.068-.165v-2.742h.492v4.116c0,.136-.032.259-.096.368-.064.11-.151.198-.262.265-.109.065-.232.099-.368.099h-2.173Z"/>
    </g>
    <g>
      <path class="cls-3" style="fill:#7cff3e!important;opacity:1!important" d="M77.136,217.133c-.132,0-.253-.032-.363-.096-.11-.064-.197-.151-.261-.262-.064-.109-.096-.23-.096-.362v-2.88c0-.133.032-.253.096-.363s.151-.197.261-.261c.11-.064.231-.097.363-.097h3.588v.486h-3.588c-.064,0-.119.023-.165.069-.046.046-.069.101-.069.165v2.88c0,.063.023.119.069.165.046.046.101.068.165.068h3.588v.486h-3.588Z"/>
      <path class="cls-3" style="fill:#7cff3e!important;opacity:1!important" d="M81.324,217.133v-2.754c0-.132.033-.253.099-.363.066-.109.154-.198.264-.264.11-.066.231-.1.363-.1h1.956v.492h-1.956c-.064,0-.119.023-.165.069s-.069.101-.069.165v2.754h-.492Z"/>
      <path class="cls-3" style="fill:#7cff3e!important;opacity:1!important" d="M84.753,217.034c-.11-.066-.198-.154-.264-.265-.066-.109-.099-.23-.099-.362v-2.028c0-.132.033-.253.099-.363.066-.109.154-.198.264-.264.11-.066.231-.1.363-.1h2.088c.136,0,.259.033.369.1.11.065.198.154.264.264.066.11.099.231.099.363v1.26h-3.054v.769c0,.063.023.118.069.165.046.046.101.068.165.068h2.82v.492h-2.82c-.132,0-.253-.033-.363-.099ZM84.881,215.146h2.556v-.768c0-.064-.023-.119-.069-.165-.046-.046-.101-.069-.165-.069h-2.088c-.064,0-.119.023-.165.069-.046.046-.069.101-.069.165v.768Z"/>
      <path class="cls-3" style="fill:#7cff3e!important;opacity:1!important" d="M89.633,217.133l-1.368-3.48h.528l1.056,2.593,1.122-2.593h.648l1.194,2.587.984-2.587h.534l-1.314,3.48h-.426l-1.296-2.874-1.23,2.874h-.432Z"/>
      <path class="cls-3" style="fill:#7cff3e!important;opacity:1!important" d="M73.895,224.333v-4.32h.486v1.914h3.45v-1.914h.492v4.32h-.492v-1.914h-3.45v1.914h-.486Z"/>
      <path class="cls-3" style="fill:#7cff3e!important;opacity:1!important" d="M79.697,224.333c-.132,0-.253-.033-.363-.099-.11-.066-.198-.154-.264-.265-.066-.109-.099-.23-.099-.362v-1.261h3.048v-.768c0-.064-.023-.119-.069-.165s-.101-.069-.165-.069h-2.814v-.492h2.814c.136,0,.259.033.369.1.11.065.198.154.264.264.066.11.099.231.099.363v2.754h-2.82ZM79.697,223.841h2.322v-1.002h-2.556v.769c0,.063.023.118.069.165.046.046.101.068.165.068Z"/>
      <path class="cls-3" style="fill:#7cff3e!important;opacity:1!important" d="M82.998,224.333v-4.62h.492v1.14h2.328c.132,0,.253.033.363.1.11.065.198.154.264.264.066.11.099.231.099.363v2.028c0,.132-.033.253-.099.362-.066.11-.154.198-.264.265-.11.065-.231.099-.363.099h-2.82ZM83.73,223.841h2.088c.064,0,.119-.022.165-.068.046-.047.069-.102.069-.165v-2.028c0-.064-.023-.119-.069-.165s-.101-.069-.165-.069h-2.088c-.064,0-.12.023-.168.069-.048.046-.072.101-.072.165v2.028c0,.063.024.118.072.165.048.046.104.068.168.068Z"/>
      <path class="cls-3" style="fill:#7cff3e!important;opacity:1!important" d="M86.987,220.205v-.492h.492v.492h-.492ZM86.987,224.333v-3.48h.492v3.48h-.492Z"/>
      <path class="cls-3" style="fill:#7cff3e!important;opacity:1!important" d="M88.598,224.234c-.11-.066-.197-.154-.261-.265-.064-.109-.096-.23-.096-.362v-3.895h.492v1.14h1.506v.492h-1.506v2.263c0,.063.023.118.069.165.046.046.101.068.165.068h1.272v.492h-1.272c-.136,0-.259-.033-.369-.099Z"/>
      <path class="cls-3" style="fill:#7cff3e!important;opacity:1!important" d="M91.421,224.333c-.132,0-.253-.033-.363-.099-.11-.066-.198-.154-.264-.265-.066-.109-.099-.23-.099-.362v-1.261h3.048v-.768c0-.064-.023-.119-.069-.165s-.101-.069-.165-.069h-2.814v-.492h2.814c.136,0,.259.033.369.1.11.065.198.154.264.264.066.11.099.231.099.363v2.754h-2.82ZM91.421,223.841h2.322v-1.002h-2.556v.769c0,.063.023.118.069.165.046.046.101.068.165.068Z"/>
      <path class="cls-3" style="fill:#7cff3e!important;opacity:1!important" d="M95.222,224.234c-.11-.066-.197-.154-.261-.265-.064-.109-.096-.23-.096-.362v-3.895h.492v1.14h1.506v.492h-1.506v2.263c0,.063.023.118.069.165.046.046.101.068.165.068h1.272v.492h-1.272c-.136,0-.259-.033-.369-.099Z"/>
    </g>
    <g>
      <path class="cls-3" style="fill:#7cff3e!important;opacity:1!important" d="M50.53,148.517c0-.132.032-.253.096-.363s.151-.197.261-.261c.11-.064.231-.096.363-.096h2.88c.132,0,.253.032.363.096s.197.151.261.261.096.231.096.363v3.6h-.486v-1.578h-3.348v1.578h-.486v-3.6ZM54.364,150.053v-1.536c0-.064-.023-.119-.069-.165-.046-.046-.101-.069-.165-.069h-2.88c-.064,0-.119.023-.165.069-.046.046-.069.101-.069.165v1.536h3.348Z"/>
      <path class="cls-3" style="fill:#7cff3e!important;opacity:1!important" d="M55.51,152.117v-2.754c0-.132.033-.253.099-.363.066-.11.154-.198.264-.264.11-.066.231-.099.363-.099h1.956v.492h-1.956c-.064,0-.119.023-.165.069s-.069.101-.069.165v2.754h-.492Z"/>
      <path class="cls-3" style="fill:#7cff3e!important;opacity:1!important" d="M58.594,152.117v-3.48h4.596c.136,0,.259.033.369.099.11.066.197.154.261.264.064.11.096.231.096.363v2.754h-.486v-2.754c0-.064-.024-.119-.072-.165-.048-.046-.104-.069-.168-.069h-1.446c-.064,0-.119.023-.165.069s-.069.101-.069.165v2.754h-.498v-2.754c0-.064-.023-.119-.069-.165s-.101-.069-.165-.069h-1.452c-.064,0-.119.023-.165.069-.046.046-.069.101-.069.165v2.754h-.498Z"/>
      <path class="cls-3" style="fill:#7cff3e!important;opacity:1!important" d="M64.807,152.018c-.11-.066-.198-.154-.264-.264-.066-.11-.099-.231-.099-.363v-2.028c0-.132.033-.253.099-.363.066-.11.154-.198.264-.264s.231-.099.363-.099h2.088c.136,0,.259.033.369.099.11.066.198.154.264.264.066.11.099.231.099.363v2.028c0,.132-.033.253-.099.363-.066.11-.154.198-.264.264-.11.066-.233.099-.369.099h-2.088c-.132,0-.253-.033-.363-.099ZM65.171,151.625h2.088c.064,0,.119-.023.165-.069.046-.046.069-.101.069-.165v-2.028c0-.064-.023-.119-.069-.165-.046-.046-.101-.069-.165-.069h-2.088c-.064,0-.119.023-.165.069-.046.046-.069.101-.069.165v2.028c0,.064.023.119.069.165.046.046.101.069.165.069Z"/>
      <path class="cls-3" style="fill:#7cff3e!important;opacity:1!important" d="M68.542,152.117v-2.754c0-.132.033-.253.099-.363.066-.11.154-.198.264-.264.11-.066.231-.099.363-.099h1.956v.492h-1.956c-.064,0-.119.023-.165.069s-.069.101-.069.165v2.754h-.492Z"/>
      <path class="cls-3" style="fill:#7cff3e!important;opacity:1!important" d="M72.196,153.497v-.498h2.172c.064,0,.119-.023.165-.069s.069-.101.069-.165v-.648h-2.322c-.132,0-.253-.033-.363-.099-.11-.066-.198-.154-.264-.264-.066-.11-.099-.231-.099-.363v-2.742h.492v2.742c0,.064.023.119.069.165s.101.069.165.069h2.088c.064,0,.119-.023.165-.069s.069-.101.069-.165v-2.742h.492v4.116c0,.136-.032.259-.096.369-.064.11-.151.198-.261.264-.11.066-.233.099-.369.099h-2.172Z"/>
    </g>
    <g>
      <path class="cls-3" style="fill:#7cff3e!important;opacity:1!important" d="M72.519,82.132c-.132,0-.253-.032-.363-.096-.11-.064-.197-.151-.261-.261s-.096-.231-.096-.363v-2.88c0-.132.032-.253.096-.363s.151-.197.261-.261.231-.096.363-.096h2.88c.132,0,.253.032.363.096.11.064.197.151.261.261s.096.231.096.363v.174h-.486v-.174c0-.064-.023-.119-.069-.165-.046-.046-.101-.069-.165-.069h-2.88c-.064,0-.119.023-.165.069-.046.046-.069.101-.069.165v2.88c0,.064.023.119.069.165.046.046.101.069.165.069h2.88c.064,0,.119-.023.165-.069.046-.046.069-.101.069-.165v-1.068h-1.068v-.492h1.554v1.56c0,.132-.032.253-.096.363s-.151.197-.261.261c-.11.064-.231.096-.363.096h-2.88Z"/>
      <path class="cls-3" style="fill:#7cff3e!important;opacity:1!important" d="M77.481,82.132c-.132,0-.253-.033-.363-.099-.11-.066-.198-.154-.264-.264-.066-.11-.099-.231-.099-.363v-1.26h3.048v-.768c0-.064-.023-.119-.069-.165s-.101-.069-.165-.069h-2.814v-.492h2.814c.136,0,.259.033.369.099.11.066.198.154.264.264.066.11.099.231.099.363v2.754h-2.82ZM77.481,81.64h2.322v-1.002h-2.556v.768c0,.064.023.119.069.165s.101.069.165.069Z"/>
      <path class="cls-3" style="fill:#7cff3e!important;opacity:1!important" d="M80.888,82.132v-2.754c0-.132.033-.253.099-.363.066-.11.154-.198.264-.264.11-.066.231-.099.363-.099h1.956v.492h-1.956c-.064,0-.119.023-.165.069s-.069.101-.069.165v2.754h-.492Z"/>
      <path class="cls-3" style="fill:#7cff3e!important;opacity:1!important" d="M84.687,82.132c-.132,0-.253-.033-.363-.099-.11-.066-.198-.154-.264-.264-.066-.11-.099-.231-.099-.363v-1.26h3.048v-.768c0-.064-.023-.119-.069-.165s-.101-.069-.165-.069h-2.814v-.492h2.814c.136,0,.259.033.369.099.11.066.198.154.264.264.066.11.099.231.099.363v2.754h-2.82ZM84.687,81.64h2.322v-1.002h-2.556v.768c0,.064.023.119.069.165s.101.069.165.069Z"/>
      <path class="cls-3" style="fill:#7cff3e!important;opacity:1!important" d="M88.7,83.506v-.498h2.172c.064,0,.119-.023.165-.069.046-.046.069-.101.069-.165v-.642h-2.322c-.132,0-.253-.033-.363-.099s-.198-.154-.264-.264c-.066-.11-.099-.231-.099-.363v-2.028c0-.132.033-.253.099-.363.066-.11.154-.198.264-.264s.231-.099.363-.099h2.088c.136,0,.259.033.369.099.11.066.197.154.261.264.064.11.096.231.096.363v3.396c0,.136-.032.259-.096.369-.064.11-.151.198-.261.264-.11.066-.233.099-.369.099h-2.172ZM88.784,81.64h2.088c.064,0,.119-.023.165-.069s.069-.101.069-.165v-2.028c0-.064-.023-.119-.069-.165s-.101-.069-.165-.069h-2.088c-.064,0-.119.023-.165.069-.046.046-.069.101-.069.165v2.028c0,.064.023.119.069.165.046.046.101.069.165.069Z"/>
      <path class="cls-3" style="fill:#7cff3e!important;opacity:1!important" d="M92.489,82.033c-.11-.066-.198-.154-.264-.264-.066-.11-.099-.231-.099-.363v-2.028c0-.132.033-.253.099-.363.066-.11.154-.198.264-.264s.231-.099.363-.099h2.088c.136,0,.259.033.369.099.11.066.198.154.264.264.066.11.099.231.099.363v1.26h-3.054v.768c0,.064.023.119.069.165.046.046.101.069.165.069h2.82v.492h-2.82c-.132,0-.253-.033-.363-.099ZM92.618,80.146h2.556v-.768c0-.064-.023-.119-.069-.165-.046-.046-.101-.069-.165-.069h-2.088c-.064,0-.119.023-.165.069-.046.046-.069.101-.069.165v.768Z"/>
      <path class="cls-3" style="fill:#7cff3e!important;opacity:1!important" d="M96.008,82.132v-.636l2.994-3.636.042-.048v.624l-2.988,3.636-.048.06Z"/>
      <path class="cls-3" style="fill:#7cff3e!important;opacity:1!important" d="M74.076,89.236c-.11-.064-.197-.151-.261-.261s-.096-.231-.096-.363v-3.6h.486v3.6c0,.064.023.119.069.165.046.046.101.069.165.069h2.88c.064,0,.119-.023.165-.069.046-.046.069-.101.069-.165v-3.6h.486v3.6c0,.132-.032.253-.096.363s-.151.197-.261.261c-.11.064-.231.096-.363.096h-2.88c-.132,0-.253-.032-.363-.096Z"/>
      <path class="cls-3" style="fill:#7cff3e!important;opacity:1!important" d="M79.037,89.233c-.11-.066-.197-.154-.261-.264-.064-.11-.096-.231-.096-.363v-3.894h.492v1.14h1.506v.492h-1.506v2.262c0,.064.023.119.069.165s.101.069.165.069h1.272v.492h-1.272c-.136,0-.259-.033-.369-.099Z"/>
      <path class="cls-3" style="fill:#7cff3e!important;opacity:1!important" d="M81.165,85.204v-.492h.492v.492h-.492ZM81.165,89.332v-3.48h.492v3.48h-.492Z"/>
      <path class="cls-3" style="fill:#7cff3e!important;opacity:1!important" d="M82.775,89.233c-.11-.066-.198-.154-.264-.264-.066-.11-.099-.231-.099-.363v-3.894h.492v3.894c0,.064.023.119.069.165s.101.069.165.069h.588v.492h-.588c-.132,0-.253-.033-.363-.099Z"/>
      <path class="cls-3" style="fill:#7cff3e!important;opacity:1!important" d="M84.224,85.204v-.492h.492v.492h-.492ZM84.224,89.332v-3.48h.492v3.48h-.492Z"/>
      <path class="cls-3" style="fill:#7cff3e!important;opacity:1!important" d="M85.835,89.233c-.11-.066-.197-.154-.261-.264-.064-.11-.096-.231-.096-.363v-3.894h.492v1.14h1.506v.492h-1.506v2.262c0,.064.023.119.069.165s.101.069.165.069h1.272v.492h-1.272c-.136,0-.259-.033-.369-.099Z"/>
      <path class="cls-3" style="fill:#7cff3e!important;opacity:1!important" d="M87.962,85.204v-.492h.492v.492h-.492ZM87.962,89.332v-3.48h.492v3.48h-.492Z"/>
      <path class="cls-3" style="fill:#7cff3e!important;opacity:1!important" d="M89.567,89.233c-.11-.066-.198-.154-.264-.264-.066-.11-.099-.231-.099-.363v-2.028c0-.132.033-.253.099-.363.066-.11.154-.198.264-.264s.231-.099.363-.099h2.088c.136,0,.259.033.369.099.11.066.198.154.264.264.066.11.099.231.099.363v1.26h-3.054v.768c0,.064.023.119.069.165.046.046.101.069.165.069h2.82v.492h-2.82c-.132,0-.253-.033-.363-.099ZM89.696,87.346h2.556v-.768c0-.064-.023-.119-.069-.165-.046-.046-.101-.069-.165-.069h-2.088c-.064,0-.119.023-.165.069-.046.046-.069.101-.069.165v.768Z"/>
      <path class="cls-3" style="fill:#7cff3e!important;opacity:1!important" d="M93.701,89.233c-.11-.066-.198-.154-.264-.264-.066-.11-.099-.231-.099-.363v-.048h.492v.048c0,.064.023.119.069.165.046.046.101.069.165.069h2.088c.064,0,.119-.023.165-.069s.069-.101.069-.165v-.534c0-.064-.023-.119-.069-.165s-.101-.069-.165-.069h-2.088c-.132,0-.253-.033-.363-.099-.11-.066-.198-.154-.264-.264-.066-.11-.099-.231-.099-.363v-.534c0-.132.033-.253.099-.363.066-.11.154-.198.264-.264s.231-.099.363-.099h2.088c.136,0,.259.033.369.099.11.066.198.154.264.264.066.11.099.231.099.363v.048h-.498v-.048c0-.064-.023-.119-.069-.165s-.101-.069-.165-.069h-2.088c-.064,0-.119.023-.165.069-.046.046-.069.101-.069.165v.534c0,.064.023.119.069.165.046.046.101.069.165.069h2.088c.136,0,.259.033.369.099.11.066.198.154.264.264.066.11.099.231.099.363v.534c0,.132-.033.253-.099.363-.066.11-.154.198-.264.264-.11.066-.233.099-.369.099h-2.088c-.132,0-.253-.033-.363-.099Z"/>
    </g>
    <g>
      <path class="cls-3" style="fill:#7cff3e!important;opacity:1!important" d="M169.605,62.262c-.133,0-.254-.032-.363-.096-.11-.064-.197-.151-.261-.261-.064-.11-.097-.231-.097-.363v-2.88c0-.132.032-.253.097-.363.063-.11.15-.197.261-.261.109-.064.23-.096.363-.096h3.588v.486h-3.588c-.064,0-.119.023-.165.069-.047.046-.069.101-.069.165v2.88c0,.064.022.119.069.165.046.046.101.069.165.069h3.588v.486h-3.588Z"/>
      <path class="cls-3" style="fill:#7cff3e!important;opacity:1!important" d="M174.15,62.162c-.11-.066-.198-.154-.265-.264-.065-.11-.099-.231-.099-.363v-2.028c0-.132.033-.253.099-.363.066-.11.154-.198.265-.264.109-.066.23-.099.363-.099h2.088c.136,0,.259.033.368.099.11.066.198.154.265.264.065.11.099.231.099.363v2.028c0,.132-.033.253-.099.363-.066.11-.154.198-.265.264-.109.066-.232.099-.368.099h-2.088c-.133,0-.254-.033-.363-.099ZM174.513,61.769h2.088c.063,0,.118-.023.165-.069.046-.046.068-.101.068-.165v-2.028c0-.064-.022-.119-.068-.165-.047-.046-.102-.069-.165-.069h-2.088c-.064,0-.119.023-.165.069-.047.046-.069.101-.069.165v2.028c0,.064.022.119.069.165.046.046.101.069.165.069Z"/>
      <path class="cls-3" style="fill:#7cff3e!important;opacity:1!important" d="M177.957,62.262v-3.48h4.596c.136,0,.259.033.369.099s.197.154.261.264c.064.11.097.231.097.363v2.754h-.486v-2.754c0-.064-.024-.119-.072-.165s-.104-.069-.168-.069h-1.446c-.063,0-.119.023-.165.069s-.068.101-.068.165v2.754h-.498v-2.754c0-.064-.023-.119-.069-.165s-.102-.069-.165-.069h-1.451c-.064,0-.119.023-.165.069-.047.046-.069.101-.069.165v2.754h-.498Z"/>
      <path class="cls-3" style="fill:#7cff3e!important;opacity:1!important" d="M183.747,62.262v-3.48h4.596c.136,0,.259.033.369.099s.197.154.261.264c.064.11.097.231.097.363v2.754h-.486v-2.754c0-.064-.024-.119-.072-.165s-.104-.069-.168-.069h-1.446c-.063,0-.119.023-.165.069s-.068.101-.068.165v2.754h-.498v-2.754c0-.064-.023-.119-.069-.165s-.101-.069-.165-.069h-1.452c-.063,0-.119.023-.165.069s-.068.101-.068.165v2.754h-.498Z"/>
      <path class="cls-3" style="fill:#7cff3e!important;opacity:1!important" d="M190.329,62.262c-.132,0-.253-.033-.363-.099s-.198-.154-.264-.264c-.066-.11-.1-.231-.1-.363v-1.26h3.049v-.768c0-.064-.023-.119-.069-.165s-.102-.069-.165-.069h-2.814v-.492h2.814c.136,0,.259.033.369.099.109.066.198.154.264.264.066.11.1.231.1.363v2.754h-2.82ZM190.329,61.769h2.322v-1.002h-2.557v.768c0,.064.023.119.069.165s.101.069.165.069Z"/>
      <path class="cls-3" style="fill:#7cff3e!important;opacity:1!important" d="M193.688,62.262v-3.48h2.819c.133,0,.253.033.363.099s.198.154.265.264c.065.11.099.231.099.363v2.754h-.492v-2.754c0-.064-.023-.119-.069-.165s-.101-.069-.165-.069h-2.088c-.063,0-.12.023-.168.069s-.071.101-.071.165v2.754h-.492Z"/>
      <path class="cls-3" style="fill:#7cff3e!important;opacity:1!important" d="M198.042,62.162c-.11-.066-.198-.154-.264-.264-.066-.11-.1-.231-.1-.363v-2.028c0-.132.033-.253.1-.363.065-.11.153-.198.264-.264s.233-.099.369-.099h2.322v-1.14h.491v4.62h-2.813c-.136,0-.259-.033-.369-.099ZM198.411,61.769h2.088c.063,0,.119-.023.165-.069s.069-.101.069-.165v-2.028c0-.064-.023-.119-.069-.165s-.102-.069-.165-.069h-2.088c-.064,0-.119.023-.165.069s-.069.101-.069.165v2.028c0,.064.023.119.069.165s.101.069.165.069Z"/>
      <path class="cls-3" style="fill:#7cff3e!important;opacity:1!important" d="M174.645,69.462c-.133,0-.254-.032-.363-.096-.11-.064-.197-.151-.261-.261-.064-.11-.097-.231-.097-.363v-2.88c0-.132.032-.253.097-.363.063-.11.15-.197.261-.261.109-.064.23-.096.363-.096h3.588v.486h-3.588c-.064,0-.119.023-.165.069-.047.046-.069.101-.069.165v2.88c0,.064.022.119.069.165.046.046.101.069.165.069h3.588v.486h-3.588Z"/>
      <path class="cls-3" style="fill:#7cff3e!important;opacity:1!important" d="M179.19,69.363c-.11-.066-.198-.154-.265-.264-.065-.11-.099-.231-.099-.363v-2.028c0-.132.033-.253.099-.363.066-.11.154-.198.265-.264.109-.066.23-.099.363-.099h2.088c.135,0,.258.033.369.099.109.066.197.154.264.264.066.11.098.231.098.363v1.26h-3.053v.768c0,.064.022.119.069.165.046.046.101.069.165.069h2.818v.492h-2.818c-.133,0-.254-.033-.363-.099ZM179.319,67.476h2.555v-.768c0-.064-.021-.119-.068-.165-.045-.046-.102-.069-.164-.069h-2.088c-.064,0-.119.023-.165.069-.047.046-.069.101-.069.165v.768Z"/>
      <path class="cls-3" style="fill:#7cff3e!important;opacity:1!important" d="M182.997,69.462v-3.48h2.819c.133,0,.253.033.363.099s.198.154.265.264c.065.11.099.231.099.363v2.754h-.492v-2.754c0-.064-.023-.119-.069-.165s-.101-.069-.165-.069h-2.088c-.063,0-.12.023-.168.069s-.071.101-.071.165v2.754h-.492Z"/>
      <path class="cls-3" style="fill:#7cff3e!important;opacity:1!important" d="M187.523,69.363c-.11-.066-.197-.154-.261-.264-.064-.11-.096-.231-.096-.363v-3.894h.491v1.14h1.507v.492h-1.507v2.262c0,.064.023.119.069.165s.101.069.165.069h1.272v.492h-1.272c-.136,0-.259-.033-.369-.099Z"/>
      <path class="cls-3" style="fill:#7cff3e!important;opacity:1!important" d="M189.977,69.363c-.11-.066-.198-.154-.264-.264-.066-.11-.1-.231-.1-.363v-2.028c0-.132.033-.253.1-.363.065-.11.153-.198.264-.264s.231-.099.363-.099h2.088c.136,0,.259.033.369.099.109.066.197.154.264.264.066.11.099.231.099.363v1.26h-3.054v.768c0,.064.023.119.069.165s.101.069.165.069h2.819v.492h-2.819c-.132,0-.253-.033-.363-.099ZM190.106,67.476h2.556v-.768c0-.064-.022-.119-.068-.165s-.102-.069-.165-.069h-2.088c-.064,0-.119.023-.165.069s-.069.101-.069.165v.768Z"/>
      <path class="cls-3" style="fill:#7cff3e!important;opacity:1!important" d="M193.742,69.462v-2.754c0-.132.033-.253.1-.363.065-.11.153-.198.264-.264s.231-.099.363-.099h1.956v.492h-1.956c-.064,0-.119.023-.165.069s-.069.101-.069.165v2.754h-.492Z"/>
    </g>
    <g>
      <path class="cls-3" style="fill:#7cff3e!important;opacity:1!important" d="M244.178,95.64v-4.32h.666l1.794,2.136,1.794-2.136h.666v4.32h-.486v-3.768l-1.974,2.346-1.974-2.346v3.768h-.486Z"/>
      <path class="cls-3" style="fill:#7cff3e!important;opacity:1!important" d="M250.08,95.541c-.11-.066-.198-.154-.264-.264-.066-.11-.1-.231-.1-.363v-2.028c0-.132.033-.253.1-.363.065-.11.153-.198.264-.264s.231-.099.363-.099h2.088c.136,0,.259.033.369.099.109.066.197.154.264.264.066.11.099.231.099.363v1.26h-3.054v.768c0,.064.023.119.069.165s.101.069.165.069h2.819v.492h-2.819c-.132,0-.253-.033-.363-.099ZM250.209,93.655h2.556v-.768c0-.064-.022-.119-.068-.165s-.102-.069-.165-.069h-2.088c-.064,0-.119.023-.165.069s-.069.101-.069.165v.768Z"/>
      <path class="cls-3" style="fill:#7cff3e!important;opacity:1!important" d="M254.063,95.541c-.11-.066-.198-.154-.264-.264-.066-.11-.1-.231-.1-.363v-2.028c0-.132.033-.253.1-.363.065-.11.153-.198.264-.264s.233-.099.369-.099h2.322v-1.14h.491v4.62h-2.813c-.136,0-.259-.033-.369-.099ZM254.432,95.148h2.088c.063,0,.119-.023.165-.069s.069-.101.069-.165v-2.028c0-.064-.023-.119-.069-.165s-.102-.069-.165-.069h-2.088c-.064,0-.119.023-.165.069s-.069.101-.069.165v2.028c0,.064.023.119.069.165s.101.069.165.069Z"/>
      <path class="cls-3" style="fill:#7cff3e!important;opacity:1!important" d="M257.888,95.64v-4.62h.492v1.14h2.327c.133,0,.253.033.363.099s.198.154.265.264c.065.11.099.231.099.363v2.028c0,.132-.033.253-.099.363-.066.11-.154.198-.265.264s-.23.099-.363.099h-2.819ZM258.62,95.148h2.088c.064,0,.119-.023.165-.069s.069-.101.069-.165v-2.028c0-.064-.023-.119-.069-.165s-.101-.069-.165-.069h-2.088c-.063,0-.12.023-.168.069s-.071.101-.071.165v2.028c0,.064.023.119.071.165s.104.069.168.069Z"/>
      <path class="cls-3" style="fill:#7cff3e!important;opacity:1!important" d="M262.604,95.64c-.132,0-.253-.033-.363-.099s-.198-.154-.264-.264c-.066-.11-.1-.231-.1-.363v-1.26h3.049v-.768c0-.064-.023-.119-.069-.165s-.102-.069-.165-.069h-2.814v-.492h2.814c.136,0,.259.033.369.099.109.066.198.154.264.264.066.11.1.231.1.363v2.754h-2.82ZM262.604,95.148h2.322v-1.002h-2.557v.768c0,.064.023.119.069.165s.101.069.165.069Z"/>
      <path class="cls-3" style="fill:#7cff3e!important;opacity:1!important" d="M266.624,97.02v-.498h2.173c.063,0,.118-.023.165-.069.046-.046.068-.101.068-.165v-.648h-2.322c-.132,0-.253-.033-.362-.099-.11-.066-.198-.154-.265-.264-.065-.11-.099-.231-.099-.363v-2.742h.492v2.742c0,.064.022.119.069.165.046.046.101.069.164.069h2.089c.063,0,.118-.023.165-.069.046-.046.068-.101.068-.165v-2.742h.492v4.116c0,.136-.032.259-.096.369-.064.11-.151.198-.262.264-.109.066-.232.099-.368.099h-2.173Z"/>
    </g>
    <g>
      <path class="cls-3" style="fill:#7cff3e!important;opacity:1!important" d="M234.2,166.724v-4.319h3.942v.485h-3.456v1.428h2.778v.492h-2.778v1.914h-.486Z"/>
      <path class="cls-3" style="fill:#7cff3e!important;opacity:1!important" d="M238.502,166.724v-2.754c0-.132.033-.253.1-.363.065-.109.153-.198.264-.264.11-.066.231-.1.363-.1h1.956v.492h-1.956c-.064,0-.119.023-.165.069s-.069.101-.069.165v2.754h-.492Z"/>
      <path class="cls-3" style="fill:#7cff3e!important;opacity:1!important" d="M241.931,166.626c-.11-.066-.198-.154-.264-.265-.066-.109-.1-.23-.1-.362v-2.028c0-.132.033-.253.1-.363.065-.109.153-.198.264-.264.11-.066.231-.1.363-.1h2.088c.136,0,.259.033.369.1.109.065.197.154.264.264.066.11.099.231.099.363v1.26h-3.054v.769c0,.063.023.118.069.165.046.046.101.068.165.068h2.819v.492h-2.819c-.132,0-.253-.033-.363-.099ZM242.06,164.738h2.556v-.768c0-.064-.022-.119-.068-.165s-.102-.069-.165-.069h-2.088c-.064,0-.119.023-.165.069s-.069.101-.069.165v.768Z"/>
      <path class="cls-3" style="fill:#7cff3e!important;opacity:1!important" d="M245.993,166.626c-.11-.066-.198-.154-.264-.265-.066-.109-.1-.23-.1-.362v-2.028c0-.132.033-.253.1-.363.065-.109.153-.198.264-.264.11-.066.231-.1.363-.1h2.088c.136,0,.259.033.369.1.109.065.197.154.264.264.066.11.099.231.099.363v1.26h-3.054v.769c0,.063.023.118.069.165.046.046.101.068.165.068h2.819v.492h-2.819c-.132,0-.253-.033-.363-.099ZM246.122,164.738h2.556v-.768c0-.064-.022-.119-.068-.165s-.102-.069-.165-.069h-2.088c-.064,0-.119.023-.165.069s-.069.101-.069.165v.768Z"/>
      <path class="cls-3" style="fill:#7cff3e!important;opacity:1!important" d="M249.8,166.724v-.672l3.006-2.316h-3.006v-.492h3.546v.673l-3.006,2.315h3.006v.492h-3.546Z"/>
      <path class="cls-3" style="fill:#7cff3e!important;opacity:1!important" d="M254.183,166.626c-.11-.066-.198-.154-.264-.265-.066-.109-.1-.23-.1-.362v-2.028c0-.132.033-.253.1-.363.065-.109.153-.198.264-.264.11-.066.231-.1.363-.1h2.088c.136,0,.259.033.369.1.109.065.197.154.264.264.066.11.099.231.099.363v1.26h-3.054v.769c0,.063.023.118.069.165.046.046.101.068.165.068h2.819v.492h-2.819c-.132,0-.253-.033-.363-.099ZM254.312,164.738h2.556v-.768c0-.064-.022-.119-.068-.165s-.102-.069-.165-.069h-2.088c-.064,0-.119.023-.165.069s-.069.101-.069.165v.768Z"/>
      <path class="cls-3" style="fill:#7cff3e!important;opacity:1!important" d="M257.948,166.724v-2.754c0-.132.033-.253.1-.363.065-.109.153-.198.264-.264.11-.066.231-.1.363-.1h1.956v.492h-1.956c-.064,0-.119.023-.165.069s-.069.101-.069.165v2.754h-.492Z"/>
    </g>
    <g>
      <path class="cls-3" style="fill:#7cff3e!important;opacity:1!important" d="M227.297,193.727v-4.314h3.6c.133,0,.253.033.363.1.11.065.197.153.261.261.064.108.097.229.097.36v1.266c0,.132-.032.252-.097.36-.063.107-.15.194-.261.261s-.23.099-.363.099h-3.113v1.608h-.486ZM228.017,191.628h2.88c.064,0,.119-.022.165-.066s.069-.098.069-.162v-1.266c0-.064-.023-.119-.069-.165s-.101-.069-.165-.069h-2.88c-.063,0-.119.023-.165.069s-.068.101-.068.165v1.266c0,.064.022.118.068.162s.102.066.165.066Z"/>
      <path class="cls-3" style="fill:#7cff3e!important;opacity:1!important" d="M232.746,193.727c-.132,0-.253-.033-.363-.099-.11-.066-.198-.154-.264-.265-.066-.109-.1-.23-.1-.362v-1.261h3.049v-.768c0-.064-.023-.119-.069-.165s-.102-.069-.165-.069h-2.814v-.492h2.814c.136,0,.259.033.369.1.109.065.198.154.264.264.066.11.1.231.1.363v2.754h-2.82ZM232.746,193.235h2.322v-1.002h-2.557v.769c0,.063.023.118.069.165.046.046.101.068.165.068Z"/>
      <path class="cls-3" style="fill:#7cff3e!important;opacity:1!important" d="M236.106,193.727v-3.48h2.819c.133,0,.253.033.363.1.11.065.198.154.265.264.065.11.099.231.099.363v2.754h-.492v-2.754c0-.064-.023-.119-.069-.165s-.101-.069-.165-.069h-2.088c-.063,0-.12.023-.168.069s-.071.101-.071.165v2.754h-.492Z"/>
      <path class="cls-3" style="fill:#7cff3e!important;opacity:1!important" d="M240.632,193.629c-.11-.066-.197-.154-.261-.265-.064-.109-.096-.23-.096-.362v-3.895h.491v1.14h1.507v.492h-1.507v2.263c0,.063.023.118.069.165.046.046.101.068.165.068h1.272v.492h-1.272c-.136,0-.259-.033-.369-.099Z"/>
      <path class="cls-3" style="fill:#7cff3e!important;opacity:1!important" d="M242.729,193.727v-2.754c0-.132.033-.253.1-.363.065-.109.153-.198.264-.264.11-.066.231-.1.363-.1h1.956v.492h-1.956c-.064,0-.119.023-.165.069s-.069.101-.069.165v2.754h-.492Z"/>
      <path class="cls-3" style="fill:#7cff3e!important;opacity:1!important" d="M246.382,195.107v-.498h2.173c.063,0,.118-.022.165-.068.046-.047.068-.102.068-.165v-.648h-2.322c-.132,0-.253-.033-.362-.099-.11-.066-.198-.154-.265-.265-.065-.109-.099-.23-.099-.362v-2.742h.492v2.742c0,.063.022.118.069.165.046.046.101.068.164.068h2.089c.063,0,.118-.022.165-.068.046-.047.068-.102.068-.165v-2.742h.492v4.116c0,.136-.032.259-.096.368-.064.11-.151.198-.262.265-.109.065-.232.099-.368.099h-2.173Z"/>
    </g>
    <g>
      <path class="cls-3" style="fill:#7cff3e!important;opacity:1!important" d="M182.641,224.527c0-.11.026-.211.08-.303.053-.092.126-.164.218-.217.091-.054.192-.08.302-.08h2.4c.11,0,.211.026.303.08.092.053.164.125.217.217.054.092.08.192.08.303v3h-.404v-1.315h-2.79v1.315h-.405v-3ZM185.837,225.807v-1.28c0-.054-.02-.1-.058-.138-.039-.038-.084-.058-.138-.058h-2.4c-.053,0-.099.02-.137.058-.039.038-.058.084-.058.138v1.28h2.79Z"/>
      <path class="cls-3" style="fill:#7cff3e!important;opacity:1!important" d="M184.236,233.302v-3.6h.41v3.6h-.41Z"/>
      <path class="cls-3" style="fill:#7cff3e!important;opacity:1!important" d="M182.659,239.076v-3.595h3c.109,0,.211.027.302.082.092.056.165.128.218.218.054.09.08.189.08.3v1.055c0,.11-.026.21-.08.301-.053.09-.126.162-.218.217-.091.056-.192.083-.302.083h-2.596v1.34h-.404ZM183.258,237.326h2.4c.053,0,.099-.019.138-.055.038-.037.057-.082.057-.136v-1.055c0-.053-.019-.099-.057-.138-.039-.038-.085-.058-.138-.058h-2.4c-.054,0-.099.02-.138.058-.038.039-.058.085-.058.138v1.055c0,.054.02.099.058.136.039.036.084.055.138.055ZM185.699,239.076l-1.176-1.4h.53l1.181,1.396v.005h-.535Z"/>
      <path class="cls-3" style="fill:#7cff3e!important;opacity:1!important" d="M182.779,244.852v-3.605h.405v3.2h3.194v.405h-3.6Z"/>
      <path class="cls-3" style="fill:#7cff3e!important;opacity:1!important" d="M183.241,250.626c-.11,0-.211-.026-.303-.08-.092-.053-.164-.126-.218-.218-.053-.091-.08-.192-.08-.302v-2.4c0-.11.027-.211.08-.303.054-.092.126-.164.218-.217.092-.054.192-.08.303-.08h2.399c.11,0,.211.026.303.08.092.053.164.125.218.217s.08.192.08.303v2.4c0,.109-.026.211-.08.302-.054.092-.126.165-.218.218-.092.054-.192.08-.303.08h-2.399ZM183.241,250.221h2.399c.054,0,.1-.019.138-.058.038-.038.058-.084.058-.137v-2.4c0-.054-.02-.1-.058-.138s-.084-.058-.138-.058h-2.399c-.054,0-.1.02-.138.058s-.058.084-.058.138v2.4c0,.053.02.099.058.137.038.039.084.058.138.058Z"/>
      <path class="cls-3" style="fill:#7cff3e!important;opacity:1!important" d="M183.266,256.402c-.11,0-.211-.026-.303-.08-.092-.053-.164-.126-.217-.218-.054-.091-.08-.192-.08-.302v-2.4c0-.11.026-.211.08-.303.053-.092.125-.164.217-.217.092-.054.192-.08.303-.08h2.99v.404h-2.99c-.054,0-.099.02-.138.058-.038.038-.058.084-.058.138v2.4c0,.053.02.099.058.137.039.039.084.058.138.058h2.99v.405h-2.99Z"/>
      <path class="cls-3" style="fill:#7cff3e!important;opacity:1!important" d="M182.734,262.176v-3.6h.41v1.595h1.16l1.34-1.595h.52v.005l-1.505,1.795,1.51,1.795v.005h-.524l-1.34-1.595h-1.16v1.595h-.41Z"/>
    </g>
  </g>
</svg>