<?xml version="1.0" encoding="UTF-8"?>
<svg id="Web_Elements" xmlns="http://www.w3.org/2000/svg" viewBox="0 0 333 318">
  <defs>
    <style>
      .cls-1 {
        fill: #2e3192;
      }
    </style>
    <pattern id="facility-controlled-door-pattern" patternUnits="userSpaceOnUse" width="6" height="6">
      <rect width="6" height="6" style="fill:#031507!important;opacity:1!important"/>
      <path d="M-1 5 L5 -1 M1 7 L7 1" style="fill:none!important;stroke:#7cff3e!important;stroke-width:1.5!important;opacity:1!important"/>
    </pattern>
  </defs>
  <rect id="door-habitat" class="cls-1" x="104.356" y="180.399" width="15.84" height="5.698"/>
  <rect id="door-hall1" class="cls-1" x="131.361" y="171.05" width="15.84" height="5.698" transform="translate(-34.619 313.18) rotate(-90)"/>
  <rect id="door-armory" class="cls-1" x="95.351" y="135.055" width="15.85" height="5.698" transform="translate(-34.629 241.18) rotate(-90)"/>
  <rect id="door-medbay" class="cls-1 is-player-controlled" style="fill:#2f7f22 !important;stroke:#7cff3e !important;opacity:.72 !important" x="221.356" y="117.051" width="15.84" height="5.698" transform="translate(109.376 349.176) rotate(-90)"/>
  <rect id="door-medbay-control-tab" class="facility-control-tab" x="228.176" y="115.601" width="2.15" height="1.45" rx=".22" transform="translate(109.376 349.176) rotate(-90)"/>
  <rect id="door-pantry" class="cls-1" x="203.361" y="189.05" width="15.84" height="5.698" transform="translate(19.381 403.18) rotate(-90)"/>
  <rect id="door-garage" class="cls-1" x="104.356" y="108.05" width="15.84" height="5.698"/>
  <rect id="door-garageext" class="cls-1" x="27.52" y="80.953" width="43.448" height="5.698" transform="translate(-34.559 133.046) rotate(-90)"/>
  <rect id="door-hall2" class="cls-1" x="176.356" y="144.05" width="15.845" height="5.698"/>
  <rect id="door-command" class="cls-1" x="176.356" y="108.053" width="15.845" height="5.698"/>
  <rect id="door-freezer" class="cls-1 is-player-controlled" style="fill:#2f7f22 !important;stroke:#7cff3e !important;opacity:.72 !important" x="247.28" y="180.048" width="16.915" height="5.698"/>
  <rect id="door-freezer-control-tab" class="facility-control-tab" x="254.662" y="178.598" width="2.15" height="1.45" rx=".22"/>
  <rect id="door-airlockint" class="cls-1 is-player-controlled" style="fill:#2f7f22 !important;stroke:#7cff3e !important;opacity:.72 !important" x="176.266" y="216.053" width="15.84" height="5.698"/>
  <rect id="door-airlockint-control-tab" class="facility-control-tab" x="183.111" y="214.603" width="2.15" height="1.45" rx=".22"/>
  <rect id="door-airlockext" class="cls-1 is-player-controlled" style="fill:#2f7f22 !important;stroke:#7cff3e !important;opacity:.72 !important" x="176.266" y="264.351" width="15.84" height="5.698"/>
  <rect id="door-airlockext-control-tab" class="facility-control-tab" x="183.111" y="262.901" width="2.15" height="1.45" rx=".22"/>
</svg>